<svg xmlns="http://www.w3.org/2000/svg" version="1.0" preserveAspectRatio="xMidYMid meet" viewBox="0.97 0 218.34 164.05">

<g transform="translate(0.000000,164.000000) scale(0.100000,-0.100000)" fill="#000000" stroke="none">
<path d="M1610 1340 l0 -300 250 0 250 0 0 300 0 300 -250 0 -250 0 0 -300z m210 243 c-30 -1 -74 -5 -97 -9 l-43 -5 0 -138 c0 -137 0 -138 25 -149 30 -14 31 -9 10 68 -17 65 -19 78 -6 65 5 -6 17 -37 27 -70 l18 -60 7 93 c4 51 10 96 13 99 3 4 6 -38 7 -93 0 -110 1 -110 51 31 41 116 47 97 9 -30 -17 -54 -29 -100 -27 -102 1 -2 40 47 85 108 45 61 85 109 87 106 3 -2 -32 -57 -76 -122 -87 -126 -85 -128 33 -37 91 69 78 42 -18 -37 -48 -39 -84 -71 -82 -71 4 0 124 35 155 45 7 3 11 1 8 -4 -3 -5 -33 -19 -66 -31 -33 -12 -57 -26 -54 -31 3 -5 35 -10 72 -10 62 -1 64 -2 27 -10 -22 -4 -58 -8 -80 -9 l-40 -1 60 -20 c56 -19 91 -39 69 -39 -5 0 -39 9 -77 19 -37 11 -67 18 -67 16 0 -2 5 -16 12 -30 11 -25 14 -26 97 -23 l86 3 5 145 c5 132 5 137 10 62 3 -45 4 -116 2 -157 l-4 -75 -199 0 -199 0 0 255 0 255 108 -2 c59 -1 82 -3 52 -5z"/>
<path d="M1680 1191 l0 -80 85 -3 c47 -2 85 -2 85 0 0 34 -129 162 -162 162 -5 0 -8 -36 -8 -79z"/>
<path d="M545 1421 c-87 -39 -144 -138 -130 -227 7 -49 67 -124 115 -144 16 -7 30 -19 30 -26 0 -20 -102 -274 -110 -274 -11 0 -93 267 -87 283 3 8 16 17 29 20 13 2 -17 5 -67 5 -59 0 -83 -2 -69 -8 26 -10 64 -69 64 -98 0 -12 -16 -57 -35 -101 -19 -43 -35 -84 -35 -90 0 -6 -7 -11 -15 -11 -8 0 -15 5 -15 10 0 6 -20 61 -44 123 -56 142 -57 148 -26 164 22 11 15 13 -65 12 -83 0 -88 -1 -60 -13 35 -15 38 -20 119 -222 34 -84 66 -153 71 -154 9 -2 32 45 95 195 25 58 24 58 68 -65 17 -47 33 -92 37 -101 5 -14 -7 -17 -87 -24 -78 -6 -88 -9 -62 -16 41 -11 44 -24 44 -186 0 -145 -8 -179 -42 -186 -13 -2 15 -4 62 -5 48 0 74 3 60 7 -24 6 -25 11 -28 89 l-3 82 30 0 c33 0 47 -18 71 -95 19 -60 75 -142 109 -160 41 -21 110 -29 141 -16 23 9 21 10 -18 10 -47 1 -87 18 -115 49 -14 16 -107 213 -107 228 0 2 6 4 13 4 19 0 55 41 68 77 15 46 -5 83 -56 102 -52 19 -50 15 -35 53 44 110 124 295 132 306 6 6 32 12 59 12 67 0 129 26 129 54 0 11 3 32 6 46 4 20 1 17 -17 -12 -27 -44 -72 -68 -129 -68 -48 0 -84 17 -122 57 -37 38 -48 73 -48 147 0 68 20 111 71 148 63 47 177 24 219 -44 l20 -33 0 35 c0 47 -8 56 -55 69 -59 16 -135 13 -180 -8z m-69 -792 c28 -29 36 -75 18 -110 -14 -29 -59 -49 -105 -49 l-29 0 0 96 0 97 46 -6 c31 -3 54 -13 70 -28z"/>
<path d="M917 1257 c-58 -135 -91 -191 -117 -204 -23 -12 -19 -13 35 -12 33 1 52 3 43 6 -22 6 -23 34 -3 73 14 27 20 30 64 30 46 0 50 -2 60 -31 16 -45 14 -67 -6 -72 -10 -3 14 -5 52 -5 54 -1 65 2 49 9 -14 7 -37 53 -74 145 -29 74 -56 137 -60 139 -4 2 -23 -33 -43 -78z m62 -79 c1 -5 -17 -8 -39 -8 -22 0 -40 2 -40 5 0 3 10 25 22 48 l21 42 18 -40 c10 -22 18 -43 18 -47z"/>
<path d="M1139 1311 c-16 -16 -29 -38 -29 -49 0 -30 37 -70 85 -91 24 -10 49 -29 55 -41 17 -31 4 -68 -24 -76 -39 -9 -59 -1 -83 35 l-23 34 0 -36 c0 -32 4 -37 35 -47 70 -23 135 18 135 85 0 34 -24 62 -77 89 -44 22 -63 44 -63 72 0 49 79 53 105 5 l14 -26 1 26 c0 35 -18 49 -63 49 -29 0 -46 -7 -68 -29z"/>
<path d="M1300 1332 c0 -1 11 -7 25 -12 l26 -10 -3 -122 c-3 -119 -4 -123 -28 -135 -22 -11 -9 -13 93 -13 94 0 117 3 117 14 0 8 3 21 6 30 3 9 2 16 -4 16 -5 0 -12 -9 -15 -21 -5 -18 -12 -20 -59 -17 l-53 3 0 60 c0 68 12 78 65 51 l30 -14 0 31 c0 24 -3 28 -12 19 -7 -7 -29 -12 -50 -12 l-39 0 3 58 c3 54 4 57 31 60 15 2 41 -3 57 -12 29 -14 30 -14 30 7 0 21 -4 22 -110 22 -61 0 -110 -1 -110 -3z"/>
<path d="M900 957 c-14 -7 -31 -26 -39 -42 -19 -40 -1 -70 67 -114 81 -52 84 -113 6 -119 -33 -3 -42 1 -61 25 l-23 28 0 -27 c0 -33 24 -48 78 -48 48 0 88 29 97 71 9 40 -13 73 -76 112 -52 32 -70 66 -49 92 13 16 57 20 76 7 6 -4 16 -16 22 -27 11 -19 11 -18 12 7 0 44 -56 62 -110 35z"/>
<path d="M1570 961 c0 -7 4 -10 8 -7 4 2 14 1 22 -4 12 -7 15 -35 15 -132 0 -118 -1 -123 -22 -133 -37 -16 -27 -20 47 -20 69 0 90 8 50 18 -17 4 -20 14 -20 61 0 52 2 56 24 56 17 0 27 -8 35 -29 7 -15 29 -44 49 -64 35 -33 42 -36 110 -39 69 -3 94 4 53 15 -17 4 -20 16 -23 102 -2 53 -1 98 0 100 2 2 54 -48 115 -112 l112 -115 5 138 c5 135 6 139 30 151 23 12 19 13 -40 13 -59 0 -63 -1 -40 -13 24 -12 25 -18 28 -105 1 -50 0 -92 -3 -92 -3 0 -51 47 -106 105 -96 99 -104 105 -142 105 l-40 0 27 -21 c26 -21 27 -22 24 -137 -3 -109 -4 -117 -23 -120 -26 -4 -78 51 -94 97 -10 30 -9 36 10 49 50 35 43 102 -12 121 -51 18 -199 27 -199 12z m174 -32 c50 -39 17 -119 -50 -119 -23 0 -24 3 -24 70 0 67 1 70 24 70 13 0 35 -9 50 -21z"/>
<path d="M605 953 c31 -8 35 -21 35 -135 0 -120 -4 -138 -31 -138 -10 0 -19 -3 -19 -7 0 -5 52 -7 115 -5 l115 3 0 27 c-1 23 -2 25 -11 10 -7 -14 -23 -18 -63 -18 l-53 0 -7 38 c-13 78 -11 82 39 82 25 0 45 -4 45 -10 0 -5 5 -10 10 -10 6 0 10 14 10 32 0 25 -3 29 -12 20 -7 -7 -31 -12 -55 -12 -47 0 -51 8 -37 79 6 30 9 31 55 31 35 0 51 -5 58 -17 9 -15 10 -14 11 10 l0 27 -112 -1 c-62 -1 -104 -4 -93 -6z"/>
<path d="M1040 934 c0 -24 1 -24 22 -10 12 9 37 16 56 16 l33 0 -3 -122 c-3 -117 -4 -124 -25 -133 -37 -16 -27 -20 47 -20 69 0 90 8 50 18 -19 5 -20 14 -20 131 l0 126 34 0 c25 0 39 -7 50 -22 16 -22 16 -22 16 10 l0 32 -130 0 -130 0 0 -26z"/>
<path d="M1340 947 c25 -12 25 -15 25 -132 0 -115 -1 -120 -22 -130 -13 -5 -23 -12 -23 -15 0 -3 52 -4 115 -2 l115 3 -1 32 c0 29 -1 30 -9 10 -8 -20 -17 -23 -64 -23 -61 0 -66 6 -66 76 l0 44 45 0 c25 0 45 -4 45 -10 0 -5 5 -10 10 -10 6 0 10 14 10 31 0 26 -2 29 -14 20 -8 -7 -32 -11 -53 -9 l-38 3 0 50 0 50 44 3 c30 2 49 -2 62 -14 18 -16 19 -16 19 9 l0 27 -112 0 c-98 0 -110 -2 -88 -13z"/>
<path d="M601 569 c34 -13 39 -31 39 -150 0 -95 -8 -120 -40 -132 -8 -3 35 -6 96 -6 116 -1 124 2 124 45 0 10 -5 9 -20 -6 -14 -14 -33 -20 -65 -20 -51 0 -59 14 -53 86 3 36 5 39 38 42 24 3 38 -2 47 -14 12 -16 13 -14 13 15 0 28 -2 31 -14 22 -8 -7 -30 -11 -48 -9 -33 3 -33 3 -33 58 l0 55 49 -1 c29 0 52 -6 54 -12 7 -22 22 -12 22 13 l0 25 -117 -1 c-89 0 -111 -3 -92 -10z"/>
<path d="M880 555 c-14 -15 -23 -37 -23 -57 0 -33 12 -46 92 -100 29 -20 41 -35 41 -52 0 -56 -72 -77 -108 -31 -25 31 -32 31 -32 2 0 -26 34 -47 76 -47 64 0 115 61 97 116 -5 15 -34 44 -68 68 -65 45 -77 72 -46 100 27 24 66 14 85 -22 l15 -27 1 31 c0 36 -13 44 -69 44 -27 0 -44 -7 -61 -25z"/>
<path d="M1063 564 l28 -15 -3 -122 c-3 -118 -4 -122 -28 -134 -22 -11 -9 -13 93 -13 94 0 117 3 117 14 0 8 3 21 6 30 3 9 1 16 -5 16 -6 0 -11 -7 -11 -15 0 -18 -35 -28 -81 -23 l-34 3 0 60 c0 58 1 60 28 63 17 2 37 -4 48 -14 18 -17 19 -16 19 21 0 34 -2 37 -13 21 -9 -12 -23 -17 -47 -14 l-35 3 0 55 c0 55 0 55 33 58 18 2 44 -3 57 -12 22 -14 23 -14 27 9 l5 23 -116 1 c-109 0 -114 -1 -88 -15z"/>
<path d="M1300 573 c26 -10 30 -26 30 -143 0 -117 -4 -133 -30 -143 -8 -3 19 -5 60 -5 41 0 68 2 60 5 -27 10 -40 36 -40 80 0 41 1 43 29 43 21 0 32 -6 36 -20 17 -53 105 -120 157 -120 19 0 16 4 -17 24 -39 24 -69 57 -94 105 -11 20 -10 26 14 51 20 21 26 36 23 61 -5 50 -49 69 -158 68 -47 0 -78 -3 -70 -6z m162 -30 c18 -16 24 -68 10 -90 -10 -16 -62 -35 -79 -29 -14 6 -19 116 -6 129 12 13 56 7 75 -10z"/>
<path d="M1532 564 c32 -17 43 -36 109 -189 l48 -110 31 70 c84 184 100 216 115 222 29 10 35 -17 33 -137 -3 -111 -4 -115 -28 -127 -21 -11 -9 -13 89 -11 l115 3 7 28 c4 15 3 27 -2 27 -5 0 -9 -7 -9 -15 0 -18 -35 -28 -81 -23 l-34 3 -3 63 -3 62 36 0 c22 0 38 -6 41 -15 10 -24 19 -17 21 15 2 29 -10 40 -22 20 -3 -5 -22 -10 -41 -10 l-35 0 3 58 c3 54 4 57 31 60 15 2 41 -3 57 -12 29 -14 30 -14 30 10 l0 24 -142 0 c-124 0 -139 -2 -123 -14 19 -14 19 -15 -4 -68 -13 -29 -31 -72 -40 -95 -9 -24 -19 -43 -23 -43 -8 0 -75 141 -84 175 -4 16 1 24 18 33 19 9 9 11 -57 11 -76 0 -79 0 -53 -15z"/>
<path d="M1780 200 c-31 -3 -40 -7 -27 -12 13 -6 17 -19 17 -62 0 -42 -4 -57 -17 -65 -15 -8 -10 -10 22 -11 30 0 36 3 27 12 -16 16 -16 115 0 124 6 4 14 2 16 -5 3 -9 7 -9 18 -1 7 7 18 9 24 5 14 -9 13 -108 -2 -123 -9 -9 -3 -12 28 -12 31 1 36 3 22 11 -14 8 -18 23 -18 64 0 57 11 75 35 55 12 -10 15 -10 15 1 0 8 9 3 20 -11 22 -29 27 -105 8 -113 -7 -3 5 -6 27 -6 30 -1 36 2 27 11 -30 30 -4 110 42 128 19 8 19 9 2 9 -11 1 -30 -9 -43 -21 l-23 -22 -15 21 c-13 18 -27 22 -88 25 -39 2 -92 1 -117 -2z"/>
<path d="M773 189 c14 -8 17 -24 17 -79 0 -57 4 -74 20 -90 29 -29 84 -27 115 5 22 21 25 33 25 95 0 67 1 70 24 70 13 0 27 -7 30 -16 9 -25 7 -83 -4 -105 -9 -17 -7 -19 17 -19 21 0 24 3 15 12 -12 12 -17 88 -5 88 3 0 27 -23 53 -50 26 -28 50 -50 53 -50 4 0 7 31 7 69 0 46 4 71 13 74 6 3 -4 5 -23 5 -19 0 -29 -2 -22 -5 7 -3 12 -23 12 -51 l0 -46 -53 52 c-51 50 -55 52 -107 52 -42 -1 -51 -3 -37 -11 23 -13 24 -114 1 -147 -21 -30 -77 -30 -98 0 -23 33 -22 134 2 147 13 8 7 10 -28 10 -35 0 -41 -2 -27 -10z"/>
<path d="M1178 193 c16 -6 16 -115 0 -131 -9 -9 -4 -12 26 -12 34 0 36 1 21 16 -11 12 -15 31 -13 68 4 71 25 67 62 -11 16 -35 32 -63 36 -63 4 0 20 28 36 62 39 83 54 86 54 11 0 -33 -5 -64 -12 -71 -9 -9 0 -12 44 -12 39 0 57 4 61 14 5 12 -1 13 -29 9 -32 -5 -34 -4 -34 22 0 24 3 27 25 23 17 -4 25 -1 25 8 0 8 -11 14 -25 14 -20 0 -25 5 -25 25 0 27 26 35 48 13 9 -9 12 -8 12 5 0 15 -11 17 -77 17 -47 0 -73 -4 -65 -9 11 -7 10 -17 -8 -52 l-22 -43 -20 38 c-11 21 -17 44 -14 52 4 11 -7 14 -57 13 -34 0 -56 -3 -49 -6z"/>
<path d="M1508 193 c8 -3 12 -27 12 -68 0 -41 -4 -65 -12 -68 -7 -3 5 -5 27 -5 22 0 34 2 28 5 -13 4 -19 53 -7 53 3 0 16 -13 29 -28 20 -24 32 -29 72 -30 26 0 54 4 61 10 22 19 14 55 -18 78 -16 12 -30 28 -30 36 0 20 37 18 50 -3 10 -16 10 -16 8 2 -3 16 -11 20 -38 20 -30 0 -36 -4 -39 -25 -2 -18 6 -32 29 -52 21 -17 31 -32 27 -42 -9 -23 -33 -20 -51 6 l-16 22 0 -22 c0 -30 -12 -28 -33 7 -15 25 -15 30 -2 41 20 16 19 56 -1 64 -9 3 -37 6 -62 5 -26 0 -41 -3 -34 -6z m81 -17 c15 -18 3 -46 -20 -46 -14 0 -19 7 -19 30 0 32 19 40 39 16z"/>
<path d="M534 128 c-5 -7 -9 -26 -9 -43 0 -23 4 -30 20 -30 17 0 20 7 20 39 0 40 -15 57 -31 34z m21 -8 c3 -5 1 -10 -4 -10 -6 0 -11 5 -11 10 0 6 2 10 4 10 3 0 8 -4 11 -10z m2 -56 c-9 -9 -28 6 -21 18 4 6 10 6 17 -1 6 -6 8 -13 4 -17z"/>
<path d="M661 121 c-27 -20 -26 -64 2 -69 24 -5 34 28 13 44 -16 12 -16 13 1 22 10 6 16 13 13 16 -3 2 -16 -3 -29 -13z m17 -50 c3 -8 -1 -12 -9 -9 -7 2 -15 10 -17 17 -3 8 1 12 9 9 7 -2 15 -10 17 -17z"/>
<path d="M255 91 l-1 -40 49 1 c53 2 73 21 44 43 -21 15 -22 29 -2 21 8 -3 15 -1 15 4 0 6 -9 10 -20 10 -24 0 -28 -35 -5 -44 28 -11 15 -23 -25 -23 -41 0 -57 21 -22 30 16 4 16 5 0 6 -10 0 -18 5 -18 10 0 5 8 12 18 14 11 3 9 5 -8 6 -23 1 -25 -3 -25 -38z"/>
<path d="M379 121 c9 -6 12 -20 9 -40 -4 -28 -2 -31 21 -31 23 1 24 2 9 11 -21 12 -23 40 -6 57 9 9 5 12 -17 12 -21 0 -26 -3 -16 -9z"/>
<path d="M495 102 c-14 -10 -14 -52 0 -52 7 0 12 14 13 30 0 17 0 30 -1 30 -1 0 -6 -4 -12 -8z"/>
<path d="M593 103 c21 -6 21 -12 0 -35 -15 -17 -15 -18 12 -18 21 0 26 4 21 16 -3 9 -6 22 -6 30 0 8 -9 14 -22 13 -17 -1 -19 -2 -5 -6z"/>
<path d="M362 3 c70 -2 187 -2 260 0 73 1 16 3 -127 3 -143 0 -203 -2 -133 -3z"/>
<path d="M1252 3 c153 -2 403 -2 555 0 153 1 28 2 -277 2 -305 0 -430 -1 -278 -2z"/>
</g>
</svg>